<svg xmlns="http://www.w3.org/2000/svg" style="display: none;">
  
    <symbol id="icon-appliances" viewBox="0 0 512 512">
      <path d="m481 293c-4 0-8 3-8 8l0 196-185 0c0 0 0 0 0 0l-58 0 0-263 243 0 0 41c0 4 4 8 8 8 4 0 8-4 8-8l0-96c0-4-4-7-8-7l-185 0 0-164c0-5-4-8-8-8l-257 0c-4 0-8 3-8 8l0 35c0 4 4 8 8 8 4 0 8-4 8-8l0-28 241 0 0 157-57 0c-5 0-8 3-8 7l0 67-176 0 0-178c0-4-4-7-8-7-4 0-8 3-8 7l0 436c0 5 4 8 8 8l450 0c4 0 8-3 8-8l0-203c0-5-4-8-8-8z m-158-106l150 0 0 32-150 0z m-93 0l78 0 0 32-78 0z m-15 310l-176 0 0-235 176 0z m-149-378c-4 0-8 3-8 7l0 93c0 4 4 8 8 8 4 0 8-4 8-8l0-93c0-4-4-7-8-7z m0 162c-4 0-8 4-8 8l0 93c0 4 4 7 8 7 4 0 8-3 8-7l0-93c0-4-4-8-8-8z m286-18c-55 0-99 44-99 99 0 11 2 22 5 32 2 4 6 6 10 5 4-2 6-6 5-10-3-9-5-18-5-27 0-46 38-84 84-84 46 0 83 38 83 84 0 46-37 84-83 84-26 0-51-12-67-33-2-4-7-4-10-2-4 3-4 8-2 11 19 25 48 39 79 39 54 0 99-45 99-99 0-55-45-99-99-99z m42 135c-10-9-16-22-16-36 0-14 6-27 16-36 1-1 2-4 2-6 0-2-1-4-2-5-12-11-27-16-42-16-35 0-63 28-63 63 0 35 28 63 63 63 15 0 30-6 42-16 1-1 2-3 2-6 0-2-1-4-2-5z m-17 5c-7 4-16 7-25 7-27 0-48-22-48-48 0-27 21-48 48-48 9 0 18 2 25 7-9 11-15 26-15 41 0 15 6 29 15 41z"/>
    </symbol>
  
    <symbol id="icon-delivery" viewBox="0 0 512 512">
      <path d="m175 276c28 0 95-96 95-150 0-53-43-96-95-96-53 0-96 43-96 96 0 47 62 150 96 150z m0-200c27 0 49 22 49 50 0 27-22 49-49 49-28 0-50-22-50-49 0-28 22-50 50-50z m13 36c8 8 8 20 0 28-12 12-33 3-33-14 0-18 21-26 33-14z m-123 79c21 46 70 115 110 115 39 0 88-69 109-115l35 0 0 245-159 0c-17-51-91-52-109 0l-21 0 0-245z m230-30c60 0 54-6 54 49 37 3 68 23 87 55l30 49c25 0 46 21 46 47l0 90c0 19-24 15-41 15-13 61-100 61-113 0l-196 0c-13 61-100 61-113 0l-34 0c-8 0-15-6-15-15l0-275c0-8 7-15 15-15l39 0c-24-85 40-161 121-161 80 0 144 76 120 161z m174 275l13 0 0-75c0-9-8-17-17-17l-75 0c-20 0-20-30 0-30l41 0c-21-35-35-69-82-74l0 196 11 0c18-52 91-51 109 0z m-35-1c-17-17-47-5-47 20 0 24 30 36 47 19 11-11 11-28 0-39z m-356 17c-1 28 30 39 47 22 17-17 5-47-19-47-15 0-27 11-28 25z"/>
    </symbol>
  
    <symbol id="icon-delivery-truck" viewBox="0 0 512 512">
      <path d="m477 233l-6 0-19-84c-3-11-13-19-24-19l-77 0 0-25c0-20-16-35-35-35-12 0-269 0-281 0-19 0-35 15-35 35l0 246c0 19 16 35 35 35l28 0c7 32 36 56 70 56 34 0 63-24 70-56l144 0c7 32 35 56 69 56 35 0 64-25 70-57 15-4 26-18 26-34l0-83c0-19-16-35-35-35z m5 35l0 75c-11-26-36-43-66-43-29 0-54 17-65 42l0-79 126 0c3 0 5 2 5 5z m-58-108l16 73-89 0 0-73z m-199-60l0 54-44-18c-3-1-7-1-11 0l-44 18 0-54z m-195 251l0-246c0-3 2-5 5-5l61 0 0 76c0 11 11 18 21 14l59-23 58 23c10 4 21-3 21-14l0-76 61 0c3 0 5 2 5 5l0 251-118 0c-7-32-36-56-70-56-34 0-63 24-70 56l-28 0c-3 0-5-2-5-5z m103 61c-29 0-49-29-38-56 16-42 79-31 79 15 0 23-18 41-41 41z m283 0c-29 0-49-29-38-56 6-15 21-26 38-26 29 0 49 29 39 56-6 15-21 26-39 26z m-201-161l61 0c8 0 15-6 15-15 0-8-7-15-15-15l-61 0c-8 0-15 7-15 15 0 9 7 15 15 15z m61 39l-41 0c-9 0-15 6-15 15 0 8 6 15 15 15l41 0c8 0 15-7 15-15 0-9-7-15-15-15z"/>
    </symbol>
  
    <symbol id="icon-delivery-truck-1" viewBox="0 0 512 512">
      <path d="m512 374c0-3-1-6-2-8l-40-86c-14-32-49-53-88-53l-35 0 0-20c0-11-8-20-18-24 15-26 26-56 26-84 0-54-44-99-99-99-55 0-99 45-99 99 0 28 11 57 25 83l-167 0c-8 0-15 7-15 15 0 9 7 15 15 15l34 0 0 30-13 0c-8 0-15 7-15 15 0 9 7 15 15 15l13 0 0 29-34 0c-8 0-15 7-15 15 0 8 7 15 15 15l34 0 0 119c0 8 6 15 15 15l42 0c2 26 24 47 50 47 27 0 49-21 50-47l166 0c2 26 23 47 50 47 27 0 48-21 50-47l25 0c8 0 15-7 15-15l0-76c0 0 0 0 0 0 0 0 0 0 0 0z m-62-66l24 51-67 0 0-40c0-6 7-11 15-11z m-194-278c38 0 69 31 69 69 0 29-16 62-34 89 0 1 0 1-1 2-12 19-25 35-34 46-9-11-22-27-34-46-1-1-1-1-1-2-18-27-34-60-34-89 0-38 31-69 69-69z m-177 301l42 0c9 0 15-7 15-15 0-8-6-15-15-15l-42 0 0-29 91 0c9 0 15-6 15-15 0-8-6-15-15-15l-91 0 0-30 122 0c21 32 42 55 44 57 3 3 7 4 11 4 4 0 8-1 11-4 2-2 23-25 44-57l6 0 0 223-119 0c-9-14-24-23-42-23-17 0-33 9-41 23l-36 0z m77 151c-11 0-20-9-20-20 0-11 9-20 20-20 11 0 20 9 20 20 0 11-9 20-20 20z m266 0c-11 0-20-9-20-20 0-2 0-4 1-5 0-1 1-2 1-3 3-7 10-12 18-12 8 0 15 5 18 12 0 1 1 2 1 3 1 1 1 3 1 5 0 11-9 20-20 20z m42-47c-9-14-24-23-42-23-18 0-33 9-42 23l-33 0 0-178 35 0c21 0 40 8 52 21l-12 0c-25 0-45 18-45 41l0 55c0 8 6 15 15 15l90 0 0 46z m-208-306c17 0 30-14 30-30 0-17-13-30-30-30-17 0-30 13-30 30 0 16 13 30 30 30z"/>
    </symbol>
  
    <symbol id="icon-facebook" viewBox="0 0 512 512">
      <path d="m341 85l47 0 0-81c-8-2-36-4-68-4-67 0-114 42-114 120l0 72-74 0 0 91 74 0 0 229 92 0 0-229 71 0 11-91-82 0 0-63c0-26 7-44 43-44z"/>
    </symbol>
  
    <symbol id="icon-fast-forward-double-right-arrows-symbol" viewBox="0 0 512 512">
      <path d="m499 226l-213-213c-16-17-44-17-60 0-17 16-17 44 0 60l182 183-182 183c-17 16-17 44 0 60 16 17 44 17 60 0l213-213c17-16 17-44 0-60z m-256-13l-169-178c-17-18-44-18-61 0-17 17-17 46 0 64l138 146-138 146c-17 18-17 47 0 65 17 18 44 18 61 0l169-178c17-18 17-47 0-65z"/>
    </symbol>
  
    <symbol id="icon-go-back-arrow" viewBox="0 0 512 512">
      <path d="m84 112c-7 9-12 10-12 3l0-14c0-20-16-36-36-36-20 0-36 16-36 36l0 124c0 20 16 36 36 36l124 0c20 0 37-16 37-36 0-20-17-36-37-36 0 0-6 0-13 0-7 0-10-9-3-18 28-44 77-70 130-70 85 0 155 69 155 155 0 86-70 156-155 156-23 0-42 18-42 41 0 23 19 41 42 41 131 0 238-107 238-238 0-131-107-238-238-238-75 0-145 35-190 94z"/>
    </symbol>
  
    <symbol id="icon-magnifying-glass" viewBox="0 0 512 512">
      <path d="m500 438l-118-118c20-32 32-69 32-110 0-114-93-207-207-207-114 0-207 93-207 207 0 115 93 207 207 207 44 0 85-14 118-37l116 116c8 9 19 13 30 13 10 0 21-4 29-13 16-16 16-42 0-58z m-293-88c-77 0-140-62-140-140 0-77 63-139 140-139 77 0 140 62 140 139 0 78-63 140-140 140z"/>
    </symbol>
  
    <symbol id="icon-magnifying-glass-1" viewBox="0 0 512 512">
      <path d="m500 438l-118-118c20-32 32-69 32-110 0-114-93-207-207-207-114 0-207 93-207 207 0 115 93 207 207 207 44 0 85-14 118-37l116 116c8 9 19 13 30 13 10 0 21-4 29-13 16-16 16-42 0-58z m-293-88c-77 0-140-62-140-140 0-77 63-139 140-139 77 0 140 62 140 139 0 78-63 140-140 140z"/>
    </symbol>
  
    <symbol id="icon-quality" viewBox="0 0 512 512">
      <path d="m453 181l-39-40 8-56c1-8-5-16-13-17l-55-10-27-50c-4-7-13-10-21-6l-50 24-50-24c-8-4-17-1-21 6l-27 50-55 10c-8 1-14 9-13 17l8 56-39 40c-6 6-6 16 0 22l39 40-8 56c-1 8 5 16 13 18l44 7 0 172c0 6 3 11 8 14 3 1 5 2 8 2 3 0 5-1 7-2l86-42 86 42c4 3 10 3 15 0 5-3 8-8 8-14l0-172 44-7c8-2 14-10 13-18l-8-56 39-40c6-6 6-16 0-22z m-190 255c-4-3-10-3-14 0l-70 34 0-105 6 11c4 7 13 10 21 7l50-25 50 25c3 1 5 1 7 1 6 0 11-3 14-8l6-11 0 105z m123-209c-4 3-5 8-5 13l7 48-48 8c-4 1-9 4-11 9l-23 42-43-21c-2-1-5-1-7-1-2 0-5 0-7 1l-43 21-23-42c-2-5-7-8-11-9l-48-8 7-48c0-5-1-10-5-13l-33-35 33-35c4-3 5-8 5-13l-7-48 48-8c4-1 9-4 11-8l23-43 43 21c4 2 10 2 14 0l43-21 23 43c2 4 7 7 11 8l48 8-7 48c0 5 1 10 5 13l33 35z m-130-143c-60 0-109 48-109 108 0 60 49 109 109 109 60 0 109-49 109-109 0-60-49-108-109-108z m0 185c-42 0-77-35-77-77 0-42 35-77 77-77 42 0 77 35 77 77 0 42-35 77-77 77z m32-117l-47 47-17-18c-7-6-17-6-23 0-6 6-6 16 0 22l29 29c3 4 7 5 11 5 5 0 9-1 12-5l58-58c6-6 6-16 0-22-6-6-16-6-23 0z"/>
    </symbol>
  
    <symbol id="icon-return" viewBox="0 0 512 512">
      <path d="m289 33c-109 0-199 77-220 179l-42-53-27 22 69 86c3 4 8 6 13 6 3 0 5 0 8-2l103-51-15-31-76 38c14-91 92-160 187-160 104 0 189 85 189 189 0 104-85 189-189 189l0 34c123 0 223-100 223-223 0-123-100-223-223-223z"/>
    </symbol>
  
    <symbol id="icon-return-1" viewBox="0 0 512 512">
      <path d="m491 469l-278 0c-95 0-170-75-170-170 0-95 75-171 170-171l226 0-49 49c-8 8-8 22 0 30 9 8 22 8 30 0l86-85c0 0 0 0 0 0 0-1 1-1 1-2 0 0 1 0 1-1 0 0 0 0 0 0 1-1 1-1 1-1 0-1 0-1 0-1 1-1 1-1 1-1 0-1 0-1 0-1 1 0 1-1 1-1 0 0 0-1 0-1 0 0 0-1 0-1 0 0 1-1 1-1 0-1 0-1 0-1 0-1 0-1 0-1 0-2 0-3 0-4 0-1 0-1 0-1 0-1 0-1 0-1 0-1-1-1-1-2 0 0 0 0 0-1 0 0 0 0 0-1 0 0 0 0-1 0 0-1 0-1 0-1 0-1 0-1-1-1 0-1 0-1 0-1 0-1 0-1-1-1 0 0 0-1 0-1 0 0-1-1-1-1 0 0-1-1-1-1 0 0 0 0 0 0l-86-86c-8-8-21-8-30 0-8 9-8 22 0 30l49 49-226 0c-118 0-213 95-213 214 0 118 95 213 213 213l278 0c11 0 21-10 21-21 0-12-10-22-21-22z"/>
    </symbol>
  
    <symbol id="icon-return-box" viewBox="0 0 512 512">
      <path d="m345 512l-225 0c-66 0-120-54-120-120l0-272c0-66 54-120 120-120l272 0c66 0 120 54 120 120l0 177c-1 27-39 27-40 0l0-177c0-44-36-80-80-80l-272 0c-44 0-80 36-80 80l0 272c0 44 36 80 80 80l225 0c27 1 27 39 0 40z m-18-402c0-11-9-20-20-20l-102 0c-27 1-27 39 0 40l102 0c11 0 20-9 20-20z m-6 329c-5 0-10-2-14-6l-33-33c-12-11-18-26-18-42 0-16 6-31 18-43 0 0 33-32 33-32 8-8 21-8 28 0 8 8 8 21 0 28l-33 33c-8 7-8 20 0 28l33 33c13 12 4 34-14 34z m166 47c54-54 15-149-62-149l-72 0c-27 1-27 39 0 40l72 0c26 0 47 21 47 48 0 26-21 47-47 47-27 1-27 39 0 40 23 0 45-9 62-26z"/>
    </symbol>
  
    <symbol id="icon-shopping-basket-1" viewBox="0 0 512 512">
      <path d="m486 199c-11-14-26-21-41-21l-36 0c-4-93-71-167-153-167-82 0-149 74-152 167l-37 0c-15 0-30 7-41 21-13 16-18 40-13 62l43 191c7 29 29 49 55 49l290 0c26 0 48-20 55-49l43-191c5-22 0-46-13-62z m-230-147c60 0 108 56 112 126l-224 0c4-70 52-126 112-126z m203 200l-43 191c-2 10-9 17-15 17l-290 0c-6 0-13-7-15-17l-43-191c-2-10-4-33 14-33l378 0c19 0 17 23 14 33z m-304 7c-12 0-21 9-21 21l0 127c0 11 9 20 21 20 11 0 20-9 20-20l0-127c0-12-9-21-20-21z m99 0c-12 0-21 9-21 21l0 127c0 11 9 20 21 20 11 0 20-9 20-20l0-127c0-12-9-21-20-21z m98 0c-11 0-20 9-20 21l0 127c0 11 9 20 20 20 12 0 21-9 21-20l0-127c0-12-9-21-21-21z"/>
    </symbol>
  
    <symbol id="icon-star" viewBox="0 0 512 512">
      <path d="m511 197c-1-5-6-9-12-10l-159-23-71-144c-2-5-7-8-13-8-6 0-11 3-13 8l-71 144-159 23c-6 1-10 5-12 10-2 6-1 12 4 16l114 112-27 158c-1 5 2 11 6 14 3 2 6 3 9 3 2 0 5 0 7-2l142-74 142 74c5 3 11 3 16-1 4-3 7-9 6-14l-27-158 114-112c5-4 6-10 4-16z"/>
    </symbol>
  
    <symbol id="icon-support" viewBox="0 0 512 512">
      <path d="m442 198l0-12c0-103-83-186-186-186-103 0-186 84-186 186l0 12c-41 12-72 51-70 98 3 51 46 91 96 91 25 0 45-20 45-45l0-103c0-23-18-42-41-44l0-9c0-86 70-156 156-156 86 0 156 70 156 156l0 9c-23 1-41 21-41 44l0 103c0 24 18 43 41 45 0 40-32 69-68 69l-32 0c-6-15-21-26-39-26l-34 0c-23 0-42 18-42 41 0 23 19 41 42 41l34 0c18 0 33-11 39-26l32 0c54 0 98-44 98-98l0-5c39-11 68-46 70-87 2-47-29-86-70-98z m-331 41l0 103c0 8-6 15-16 15-35-1-63-28-65-63-2-38 28-69 66-69l0 0c8 0 15 6 15 14z m162 243l-34 0c-6 0-11-5-11-11 0-6 5-11 11-11l34 0c7 0 11 5 11 11 0 6-5 11-11 11z m209-188c-2 35-30 62-65 63-10 0-16-7-16-15l0-103c0-8 7-14 15-14l0 0c38 0 68 31 66 69z m-215 80l69-70c22-21 22-56 0-78-20-20-54-24-80 2-25-26-60-22-80-2-22 22-22 57 0 78l69 70c6 6 16 6 22 0z m-70-127c10-10 26-10 36 0l12 13c6 6 16 6 22 0l12-13c10-10 26-10 36 0 10 10 10 26 0 36l-59 59-59-59c-10-10-10-26 0-36z"/>
    </symbol>
  
    <symbol id="icon-time-left" viewBox="0 0 512 512">
      <path d="m308 467c-4 1-9 2-13 2-11 2-19 13-16 24 1 6 4 10 8 13 4 3 10 5 16 4 5-1 10-2 15-3 11-3 18-14 15-25-3-11-14-18-25-15z m152-276c2 4 4 7 8 10 5 4 12 5 18 3 11-4 17-16 13-26-1-5-3-10-5-15-4-11-16-16-27-12-10 5-16 17-11 27 1 4 3 8 4 13z m-85 246c-4 3-8 5-11 7-10 6-14 18-8 28 2 3 4 5 6 7 6 4 15 5 22 1 5-3 9-6 13-8 10-7 13-20 6-29-6-10-19-12-28-6z m137-189c0-11-10-20-21-20-12 1-21 10-20 22 0 4 0 8 0 13 0 7 3 13 9 17 3 2 7 4 11 4 11 0 21-9 21-20 0-6 0-11 0-16z m-55 135c-9-7-22-5-29 4-3 4-5 7-8 10-8 9-7 22 2 29 1 1 1 1 2 2 8 6 20 4 27-4 3-4 7-8 10-12 7-9 5-22-4-29z m30-74c-11-4-22 2-26 13-1 4-3 8-4 12-3 9 0 19 7 25 2 1 3 1 5 2 10 4 22-1 26-12 2-5 4-10 6-15 3-11-3-22-14-25z m-269 161c-18-4-36-9-53-17 0 0 0-1 0-1-4-1-8-3-12-6 0 0 0 0 0 0-7-3-14-8-21-12-96-69-120-203-52-300 15-21 33-38 53-52 1 0 1-1 1-1 71-48 166-52 241-2l-16 23c-4 7-2 12 6 11l70-6c8-1 13-8 11-15l-19-68c-2-8-8-8-12-2l-16 23c-55-37-121-51-187-39-6 1-13 2-19 4 0 0 0 0 0 0-1 0-1 0-1 0-56 15-106 47-141 94 0 1 0 1-1 2-1 1-2 3-3 4-2 3-4 6-6 8 0 1 0 1 0 1-29 45-43 97-41 150 0 0 0 0 0 1 0 5 1 10 1 15 0 1 1 1 1 1 0 5 1 11 2 16 9 53 34 100 71 138 1 0 1 0 1 0 0 0 0 0 0 0 10 10 21 19 33 27 30 22 65 36 102 43 11 2 22-5 24-17 2-11-6-21-17-23z m25-378c-9 0-16 7-16 16l0 166 152 79c2 1 5 2 7 2 6 0 12-4 15-9 4-9 1-19-7-23l-134-69 0-146c0-9-7-16-17-16z"/>
    </symbol>
  
    <symbol id="icon-tv-box" viewBox="0 0 512 512">
      <path d="m72 80l-16 0c-4 0-8 4-8 8l0 16 16 0 0-8 8 0z m392 24l0-16c0-4-4-8-8-8l-16 0 0 16 8 0 0 8z m-416 160l0 16c0 4 4 8 8 8l16 0 0-16-8 0 0-8z m193-24l16 0 0 16-16 0z m8-40c-23 0-43 16-48 38l16 4c3-15 16-26 32-26 15 0 28 11 31 26l16-4c-5-22-25-38-47-38z m0-16c24 0 46 14 57 36l14-8c-13-27-41-44-71-44-31 0-59 17-72 44l14 8c11-22 33-36 58-36z m219 88l-136 0c-15 0-28 13-28 28l0 136c0 15 13 28 28 28l136 0c15 0 28-13 28-28l0-12-16 0 0 12c0 7-5 12-12 12l-136 0c-7 0-12-5-12-12l0-136c0-7 5-12 12-12l136 0c7 0 12 5 12 12l0 108 16 0 0-108c0-15-13-28-28-28z m-84 136l0-56 24 0 0-16-64 0 0 16 24 0 0 56z m40 0c3 0 5-1 6-3l24-32-12-10-18 24-18-24-12 10 24 32c1 2 3 3 6 3z m-164-136l-24 0c-15 0-28 13-28 28l0 136c0 15 13 28 28 28l24 0c15 0 28-13 28-28l0-136c0-15-13-28-28-28z m12 164c0 7-5 12-12 12l-24 0c-7 0-12-5-12-12l0-15c6 7 15 11 24 11 9 0 18-4 24-11z m-40-36c0-9 7-16 16-16 9 0 16 7 16 16 0 9-7 16-16 16-9 0-16-7-16-16z m40-21c-6-7-15-11-24-11-9 0-18 4-24 11l0-79c0-7 5-12 12-12l24 0c7 0 12 5 12 12z m-40-43l32 0 0 16-32 0z m8-32l16 0 0 16-16 0z m-208-238c0-1 1-2 2-2l38 0 0-16-38 0c-10 0-18 8-18 18l0 268c0 10 8 18 18 18l33 0-10 20c-1 2-1 3-1 4l0 8-12 0c-15 0-28 13-28 28l0 12c0 4 4 8 8 8l168 0 0-16-160 0 0-4c0-7 5-12 12-12l148 0 0-16-56 0 0-8c0-1 0-2-1-4l-10-20 67 0 0-16-158 0c-1 0-2-1-2-2 0 0 0 0 0 0 0 0 0 0 0 0 0 0 0 0 0 0l0-14 160 0 0-16-160 0z m40 312l13-26 22 0 13 26 0 6-48 0z m406-330l-390 0 0 16 390 0c1 0 2 1 2 2l0 190 16 0 0-190c0-10-8-18-18-18z m-150 248l16 0 0 16-16 0z m128 0l16 0 0 16-16 0z m-128 128l16 0 0 16-16 0z m128 0l16 0 0 16-16 0z"/>
    </symbol>
  
    <symbol id="icon-user-profile" viewBox="0 0 512 512">
      <path d="m472 512l-52 0c0-88-74-159-164-159-90 0-164 72-164 159l-52 0c0-116 97-211 216-211 119 0 216 95 216 211z m-216-227c-78 0-142-64-142-143 0-78 64-142 142-142 78 0 142 64 142 142 0 79-64 143-142 143z m0-233c-50 0-90 40-90 90 0 50 40 91 90 91 50 0 90-41 90-91 0-50-40-90-90-90z"/>
    </symbol>
  
    <symbol id="icon-vacuum-cleaner" viewBox="0 0 512 512">
      <path d="m499 212l-10 0-11-21c-2-5-8-10-15-9l0-24c0-15-6-29-17-40l-93-93c-12-12-29-19-46-19l-268 0c-21 0-39 17-39 39l0 29c0 14 6 28 17 37l81 73-17 45c-10-1-21 7-20 18l0 23c0 10 8 19 18 19l0 127c0 4 3 8 7 8 5 0 8-4 8-8l0-127 77 0c1 5 3 9 7 12 0 0 114 114 114 114l0 29-213 0c-10 0-18 8-18 19l0 25c0 10 8 18 18 18l227 0c11 0 19-8 19-18l0-25c0-11-8-19-18-19l0-22c5 0 13-2 18-7 4-5 7-11 7-17 0-6-3-12-7-17l-18-18 0-74c10 0 18-9 18-19l0-23c0-10-10-19-21-18l-26-69c-6-17-23-28-41-28l-89 0c-12 0-23 5-31 14l-72-66c-1 0-1 0-1 0-2-2-3-4-3-6l0-27 105 0c4 0 7-3 7-8 0-4-3-7-7-7l-107 0c-7 0-13 6-13 13l0 29c0 6 3 13 8 17 0 0 0 0 0 1 0 0 0 0 0 0l74 66c0 0-4 11-4 11l-77-69c0 0 0 0 0 0-8-7-12-16-12-26l0-29c0-13 11-24 24-24l268 0c13 0 26 5 36 15l93 93c8 8 12 18 12 29l0 24-11 0 0-24c0-8-3-16-9-21l-93-93c-8-8-18-12-28-12l-126 0c-4 0-8 3-8 7 0 5 4 8 8 8l126 0c6 0 12 3 17 7l93 93c3 3 5 7 5 11l0 24c-6 0-12 3-15 9l-11 21-10 0c-7 0-13 6-13 13l0 19c0 7 6 13 13 13l113 0c7 0 13-6 13-13l0-19c0-7-6-13-13-13z m-189 251l0 25c0 2-2 3-4 3l-227 0c-2 0-3-1-3-3l0-25c0-2 1-4 3-4l227 0c2 0 4 2 4 4z m7-65c0 2-1 5-3 6-1 1-3 2-6 3-1 0-2 0-6-3l-114-113c-1-2-2-4-2-6 0-4 3-9 9-9 2 0 4 1 6 3l113 113c2 2 3 4 3 6z m-85-109l60 0 0 59z m78-42l0 23c0 2-2 4-4 4l-89 0-6-6c-4-5-10-7-16-7-8 0-17 4-21 13l-95 0c-2 0-3-2-3-4l0-23c0-2 1-3 3-3l227 0c2 0 4 1 4 3z m-125-100l0 13c0 4 4 7 8 7 4 0 7-3 7-7l0-13 15 0 0 32c0 2-1 3-3 3l-39 0c-1 0-2-1-2-3l0-32z m-37 0l8 0 0 32c0 10 8 18 17 18l39 0c10 0 18-8 18-18l0-32 7 0c12 0 23 7 27 18l24 64-191 0 25-64c4-11 15-18 26-18z m272 51c0-1 1-1 1-1l43 0c0 0 1 0 1 1l7 14-59 0z m77 44l-109 0 0-15 109 0z m-54 32c-5 0-8 3-8 7l0 42c0 4 3 7 8 7 4 0 7-3 7-7l0-42c0-4-3-7-7-7z m-33 0c-4-1-8 1-9 5l-13 41c-1 4 1 9 5 10 1 0 2 0 3 0 3 0 6-2 7-5l12-42c1-4-1-8-5-9z m74 5c-1-4-5-6-9-5-4 1-6 5-5 9l12 42c1 3 4 5 7 5 1 0 2 0 3 0 4-1 6-6 5-9z"/>
    </symbol>
  
    <symbol id="icon-youtube" viewBox="0 0 512 512">
      <path d="m486 295l0 151c0 9-2 18-6 26-4 8-10 15-17 21-7 6-14 10-24 14-9 3-18 5-29 5l-308 0c-11 0-20-2-29-5-9-4-17-8-24-14-7-6-13-13-17-21-4-8-6-17-6-26l0-151c0-9 2-17 6-26 4-8 10-15 17-21 7-5 15-10 24-14 9-3 18-5 29-5l308 0c10 0 20 2 29 5 9 4 17 9 24 14 7 6 13 13 17 21 4 9 6 17 6 26z m-364 168l0-159 38 0 0-24-102 0 0 23 33 0 0 160z m16-371l-43-92 37 0 21 69 21-69 37 0-40 92 0 108-33 0z m99 235l-31 0 0 85c0 6 0 11 0 14 0 4 0 6-2 7-1 3-3 6-8 8-4 1-7-1-10-8 0-1 0-3 0-6 0-4 0-9 0-14l0-86-32 0 1 84c0 7-1 12-1 17 0 4 0 8 1 10 0 4 0 8 1 12 0 4 3 8 7 10 3 2 7 4 12 4 5 0 10-1 15-3 5-2 9-4 13-7 4-2 7-5 9-9l-1 17 26 1z m-29-220c0-13 1-23 4-32 2-8 7-14 13-18 6-5 14-7 24-7 8 0 15 2 21 4 6 3 11 7 14 12 3 5 5 9 6 14 2 6 2 14 2 24l0 36c0 13 0 22-2 28 0 5-2 11-7 17-4 6-8 10-13 12-6 2-12 4-19 4-8 0-15-1-21-4-6-1-10-5-13-10-3-3-5-8-7-15-1-6-2-16-2-28z m28 56c0 3 2 7 5 9 2 3 6 5 9 5 4 0 7-2 10-4 3-3 5-6 5-10l0-75c0-4-2-8-5-10-3-3-6-5-9-5-4 0-7 2-10 5-3 2-5 6-5 10z m103 261l0-71c0-13-5-23-14-28-3-2-7-3-11-3-8 0-16 3-26 11l0-53-32 0 0 181 26 0 2-12c9 8 16 12 23 14 7 1 13 0 17-2 5-3 9-8 11-15 3-6 4-14 4-22z m-38-85c4 0 7 1 10 4 3 2 4 4 4 7l0 80c0 3-1 5-4 7-3 2-6 3-10 3-4 0-7-1-10-3-3-2-4-4-4-7l0-80c0-3 1-5 4-7 3-3 6-4 10-4z m15-153c-1-2-2-4-2-6 0-2 0-3-1-5 0-3-1-6-1-10l0-109 30 0 0 109c0 3 1 5 3 7 2 2 5 3 8 3 4 0 6-1 9-3 2-2 3-4 3-7l0-109 28 0 0 140-35 0 0-11c-3 4-6 8-9 10-4 3-8 4-12 4-5 0-10-1-13-4-3-2-6-5-8-9z m123 229l-24 0 0 16c0 3-1 6-4 8-2 2-5 3-9 3l-5 0c-4 0-7-1-9-3-3-2-4-5-4-8l0-33 55 0 0-19c0-7 0-14 0-21-1-6-1-11-2-15-1-6-4-11-9-15-4-4-10-6-16-7-6-2-13-2-19-1-7 1-12 3-17 6-6 4-11 10-14 17-2 7-4 17-4 30l0 42c0 18 5 31 14 38 9 7 18 11 28 11 1 0 2 0 3 0 10-1 20-5 28-14 6-6 9-14 9-24 0-3 0-7-1-11z m-24-40l-31 0 1-17c0-4 1-7 4-9 3-3 6-4 10-4l1 0c5 0 8 1 11 4 3 2 4 5 4 9z"/>
    </symbol>
  
    <symbol id="icon-arrow" viewBox="0 0 512 512">
      <path d="m391 281l-220 220c-14 14-36 14-50 0-14-14-14-36 0-50l194-195-194-195c-14-14-14-37 0-50 14-15 36-15 50 0l220 220c7 7 11 16 11 25 0 9-4 18-11 25z"/>
    </symbol>
  
    <symbol id="icon-arrow-1" viewBox="0 0 512 512">
      <path d="m481 220c-2 0-4 0-6 0l-361 0 8-4c7-4 14-9 20-15l102-101c13-13 15-33 5-49-12-16-35-19-51-7-2 0-3 2-4 3l-183 183c-15 14-15 37 0 52 0 0 0 0 0 0l183 183c14 14 37 14 52 0 1-1 2-3 3-4 10-15 8-36-5-48l-102-102c-5-5-11-10-18-13l-11-5 360 0c19 1 35-13 39-31 3-20-11-39-31-42z"/>
    </symbol>
  
    <symbol id="icon-check" viewBox="0 0 512 512">
      <path d="m497 157l-270 271c-20 20-52 20-72 0l-140-140c-20-20-20-52 0-72 20-21 53-21 73 0l103 103 234-234c20-20 52-20 72 0 20 20 20 52 0 72z"/>
    </symbol>
  
    <symbol id="icon-close" viewBox="0 0 512 512">
      <path d="m284 256l222-222c8-8 8-20 0-28-8-8-20-8-28 0l-222 222-222-222c-8-8-20-8-28 0-8 8-8 20 0 28l222 222-222 222c-8 8-8 20 0 28 4 4 9 6 14 6 5 0 10-2 14-6l222-222 222 222c4 4 9 6 14 6 5 0 10-2 14-6 8-8 8-20 0-28z"/>
    </symbol>
  
    <symbol id="icon-tick" viewBox="0 0 512 512">
      <path d="m505 75c-10-10-27-10-37 0l-306 307-118-118c-10-10-27-10-37 0-10 10-10 27 0 37l136 136c10 10 27 9 37 0l325-325c10-10 10-27 0-37z"/>
    </symbol>
  
    <symbol id="icon-iconfinder-menu-5957012" viewBox="0 0 512 512">
      <path d="m124 152l256 0c11 0 20 9 20 20 0 11-9 20-20 20l-256 0c-11 0-20-9-20-20 0-11 9-20 20-20z m0 80l256 0c11 0 20 9 20 20 0 11-9 20-20 20l-256 0c-11 0-20-9-20-20 0-11 9-20 20-20z m0 80l256 0c11 0 20 9 20 20 0 11-9 20-20 20l-256 0c-11 0-20-9-20-20 0-11 9-20 20-20z"/>
    </symbol>
  
    <symbol id="icon-iconfinder-menu-4092560" viewBox="0 0 512 512">
      <path d="m464 96l-416 0c-9 0-16 7-16 16 0 9 7 16 16 16l416 0c9 0 16-7 16-16 0-9-7-16-16-16z m-416 176l208 0c9 0 16-7 16-16 0-9-7-16-16-16l-208 0c-9 0-16 7-16 16 0 9 7 16 16 16z m352 112l-352 0c-9 0-16 7-16 16 0 9 7 16 16 16l352 0c9 0 16-7 16-16 0-9-7-16-16-16z"/>
    </symbol>
  
    <symbol id="icon-iconfinder-menu-4-5957013" viewBox="0 0 512 512">
      <path d="m124 152l256 0c11 0 20 9 20 20 0 11-9 20-20 20l-256 0c-11 0-20-9-20-20 0-11 9-20 20-20z m-5 80l186 0c8 0 15 9 15 20 0 11-7 20-15 20l-186 0c-8 0-15-9-15-20 0-11 7-20 15-20z m5 80l256 0c11 0 20 9 20 20 0 11-9 20-20 20l-256 0c-11 0-20-9-20-20 0-11 9-20 20-20z"/>
    </symbol>
  
    <symbol id="icon-iconfinder-menu-5925630" viewBox="0 0 512 512">
      <path d="m64 110l384 0 0 30-384 0z m0 131l284 0 0 30-284 0z m0 131l384 0 0 30-384 0z"/>
    </symbol>
  
    <symbol id="icon-iconfinder-menu-5957012-1" viewBox="0 0 512 512">
      <path d="m124 152l256 0c11 0 20 9 20 20 0 11-9 20-20 20l-256 0c-11 0-20-9-20-20 0-11 9-20 20-20z m0 80l256 0c11 0 20 9 20 20 0 11-9 20-20 20l-256 0c-11 0-20-9-20-20 0-11 9-20 20-20z m0 80l256 0c11 0 20 9 20 20 0 11-9 20-20 20l-256 0c-11 0-20-9-20-20 0-11 9-20 20-20z"/>
    </symbol>
  
    <symbol id="icon-megaphone" viewBox="0 0 512 512">
      <path d="m400 0c-33 0-59 23-77 57l-1 0c-26 53-66 87-110 87l-148 0c-36 0-64 35-64 80c0 45 28 80 64 80c18 0 32 14 32 32l0 144c0 18 14 32 32 32l64 0c18 0 32-14 32-32l0-16c0-16-16-23-16-32l0-112c0 0 0-1 0-1c0-2 1-4 2-6c0-1 1-1 1-2c1-2 3-3 5-4c0 0 0-1 0-1c0 0 0 0 0 0c1 0 3-1 4-1c41 4 77 37 102 86l1 0c18 35 44 57 77 57c74 0 112-113 112-224c0-111-38-224-112-224z m-80 224c0-17 1-33 3-48l45 0c18 0 32 22 32 48c0 27-14 48-32 48l-45 0c-2-15-3-31-3-48z m-288 0c0-26 14-48 32-48l112 0c-10 12-16 29-16 48c0 19 6 36 16 48l-112 0c-18 0-32-21-32-48z m160 256l-64 0l0-144c0-12-3-23-9-32l11 0l0 0l49 0c-2 5-3 10-3 16l0 112c0 15 9 26 14 32c0 1 1 1 2 2z m20-208l-4 0l0 0c-18 0-32-21-32-48c0-26 14-48 32-48l4 0c30 0 58-12 83-32c-5 25-7 53-7 80c0 27 2 55 7 80c-25-20-53-32-83-32z m188 144c-32 0-60-46-73-112l41 0c36 0 64-35 64-80c0-45-28-80-64-80l-41 0c13-66 41-112 73-112c44 0 80 86 80 192c0 106-36 192-80 192z"/>
    </symbol>
  
    <symbol id="icon-speaker" viewBox="0 0 512 512">
      <path d="m165 363l262 85l0-384l-262 85l-80 0c-35 0-64 29-64 64l0 86c0 35 29 64 64 64l9 0c0 0 0 1 0 1c0 14 2 33 8 52c4 9 8 19 14 27c3 4 6 9 9 12c3 4 7 7 10 10c7 6 13 10 17 12c5 3 8 4 8 4l0 1c4 2 9 3 14 4c19 2 37-12 39-32c2-19-12-37-31-39c0 0-1 0-4-1c-2 0-5 0-9-1c-2-1-4-2-6-2c-2-1-4-3-6-4c-5-3-10-7-14-12c-8-10-15-22-19-32z m198-241l21-7l0 282l-21-6z m-171 57l149-50l0 255l-149-51z m-107 141c-11 0-21-10-21-21l0-86c0-11 10-21 21-21l86 0l0 128z m363-128l21 0l0 128l-21 0z"/>
    </symbol>
  
    <symbol id="icon-add-to-basket-1" viewBox="0 0 512 512">
      <path d="m472 452c0 11-9 20-20 20l-20 0 0 20c0 11-9 20-20 20-11 0-20-9-20-20l0-20-20 0c-11 0-20-9-20-20 0-11 9-20 20-20l20 0 0-20c0-11 9-20 20-20 11 0 20 9 20 20l0 20 20 0c11 0 20 9 20 20z m0-312l0 192c0 11-9 20-20 20-11 0-20-9-20-20l0-172-40 0 0 60c0 11-9 20-20 20-11 0-20-9-20-20l0-60-192 0 0 60c0 11-9 20-20 20-11 0-20-9-20-20l0-60-40 0 0 312 212 0c11 0 20 9 20 20 0 11-9 20-20 20l-232 0c-11 0-20-9-20-20l0-352c0-11 9-20 20-20l61 0c8-67 65-120 135-120 70 0 127 53 135 120l61 0c11 0 20 9 20 20z m-121-20c-8-45-48-80-95-80-47 0-87 35-95 80z"/>
    </symbol>
  
    <symbol id="icon-shopping-cart-1" viewBox="0 0 512 512">
      <path d="m163 398c-29 0-53 24-53 54 0 29 24 53 53 53 30 0 54-24 54-53 0-30-24-54-54-54z m0 83c-16 0-29-13-29-29 0-17 13-30 29-30 17 0 30 13 30 30 0 16-13 29-30 29z m226-83c-30 0-53 24-53 54 0 29 23 53 53 53 30 0 53-24 53-53 0-30-23-54-53-54z m0 83c-16 0-30-13-30-29 0-17 14-30 30-30 16 0 30 13 30 30 0 16-14 29-30 29z m121-395c-3-2-6-4-10-4l-387-6-10-32c-8-22-28-37-51-37l-40 0c-7 0-12 5-12 12 0 6 5 12 12 12l40 0c13 0 24 8 28 20l76 228-6 14c-7 17-5 36 5 51 10 15 27 25 45 25l231 0c6 0 11-5 11-12 0-6-5-12-11-12l-231 0c-11 0-20-5-25-14-6-8-7-19-3-28l4-11 250-26c28-3 50-23 57-50l28-119c2-4 1-8-1-11z m-50 125c-4 17-19 30-37 31l-247 26-55-168 364 5z"/>
    </symbol>
  
    <symbol id="icon-897f0303-d2a2-4371-a7bf-f160ce68f1ae" viewBox="0 0 512 512">
      <path d="m511 421l-29-226c-7-39-41-67-82-67l-80 0 0-26 96 0c14 0 26-11 26-25l0-51c0-15-12-26-26-26l-32 0c-7 0-13 6-13 13 0 7 6 13 13 13l32 0 0 51-320 0 0-51 173 0c7 0 13-6 13-13 0-7-6-13-13-13l-173 0c-14 0-26 11-26 26l0 51c0 14 12 25 26 25l96 0 0 26-80 0c-41 0-75 28-82 67l-1 8c0 7 5 14 11 15 7 0 14-4 15-11l1-8c4-26 28-45 56-45l288 0c28 0 52 19 56 45l30 226c2 15-2 30-12 41-11 13-28 21-45 20l-346 0c-17 1-34-7-45-20-10-11-14-27-12-42l14-103c1-7-4-13-11-14-7-1-14 4-15 11l-13 103c-4 22 3 45 18 62 16 18 39 29 64 29l346 0c25 0 48-11 64-29 15-17 21-40 18-62z m-293-293l0-26 76 0 0 26z m-186 154c1 0 1 0 2 0 6 0 12-5 12-12l2-13c1-7-4-13-11-14-7-1-13 4-14 11l-2 13c0 4 0 7 3 10 2 2 5 4 8 5z m288-256l13 0c7 0 13-6 13-13 0-7-6-13-13-13l-13 0c-7 0-13 6-13 13 0 7 6 13 13 13z m-44 242l-31 45c-4 6-2 14 4 18 6 4 14 2 18-4l30-45c4-5 3-13-3-17-6-4-14-3-18 3z m107 67c6-54-22-106-71-130-49-24-108-14-146 25-39 38-49 97-25 146 24 49 76 77 130 71 7-1 12-7 11-14-1-7-7-12-14-11-4 0-8 0-12 0-57 0-102-46-102-102 0-57 45-102 102-102 57 0 102 45 102 102 0 4 0 8 0 12-1 7 4 13 11 14 7 1 13-4 14-11z m-40 40c-9 12-20 23-32 32-6 3-8 11-5 17 4 6 12 8 18 4 16-10 30-24 40-40 4-6 2-14-4-18-6-3-14-1-17 5z"/>
    </symbol>
  
</svg>
