<svg width="26" height="26" viewBox="0 0 26 26" fill="none" xmlns="http://www.w3.org/2000/svg">
<rect width="26" height="26" rx="5" fill="url(#paint0_linear_2793_10417)"/>
<path d="M19 19.75C11.9695 19.75 6.25 14.0305 6.25 7C6.25 6.586 6.586 6.25 7 6.25H9.769C10.183 6.25 10.519 6.586 10.519 7C10.519 8.296 10.801 9.5305 11.3575 10.6675C11.446 10.8475 11.458 11.053 11.392 11.242C11.3275 11.431 11.1895 11.5855 11.0095 11.6725L9.8905 12.2125C10.822 13.834 12.166 15.1795 13.786 16.108L14.326 14.9905C14.413 14.8105 14.5675 14.674 14.7565 14.608C14.9455 14.5435 15.1525 14.5555 15.331 14.6425C16.471 15.199 17.704 15.481 18.9985 15.481C19.4125 15.481 19.7485 15.817 19.7485 16.231V19H19.75C19.75 19.414 19.414 19.75 19 19.75Z" fill="white"/>
<path d="M19 19.75C11.9695 19.75 6.25 14.0305 6.25 7C6.25 6.586 6.586 6.25 7 6.25H9.769C10.183 6.25 10.519 6.586 10.519 7C10.519 8.296 10.801 9.5305 11.3575 10.6675C11.446 10.8475 11.458 11.053 11.392 11.242C11.3275 11.431 11.1895 11.5855 11.0095 11.6725L9.8905 12.2125C10.822 13.834 12.166 15.1795 13.786 16.108L14.326 14.9905C14.413 14.8105 14.5675 14.674 14.7565 14.608C14.9455 14.5435 15.1525 14.5555 15.331 14.6425C16.471 15.199 17.704 15.481 18.9985 15.481C19.4125 15.481 19.7485 15.817 19.7485 16.231V19H19.75C19.75 19.414 19.414 19.75 19 19.75Z" fill="white"/>
<defs>
<linearGradient id="paint0_linear_2793_10417" x1="13" y1="19.5" x2="-2" y2="-11" gradientUnits="userSpaceOnUse">
<stop stop-color="#12885C"/>
<stop offset="1" stop-color="#5AD3A6"/>
</linearGradient>
</defs>
</svg>
